<?xml version="1.0" encoding="utf-8"?>
<svg version="1.1" id="Layer_1" xmlns="http://www.w3.org/2000/svg" xmlns:xlink="http://www.w3.org/1999/xlink" x="0px" y="0px"
	 viewBox="0 0 223.6 223.6" style="enable-background:new 0 0 223.6 223.6;" xml:space="preserve">
<style type="text/css">
	.st0{clip-path:url(#SVGID_2_);}
	.st1{fill:#4285F4;}
	.st2{fill:#34A853;}
	.st3{fill:#FBBC04;}
	.st4{fill:#E94235;}
</style>
<g>
	<defs>
		<rect id="SVGID_1_" width="223.6" height="223.6"/>
	</defs>
	<clipPath id="SVGID_2_">
		<use xlink:href="#SVGID_1_"  style="overflow:visible;"/>
	</clipPath>
	<g class="st0">
		<path class="st1" d="M219.2,114.4c0-7.9-0.7-15.6-2-22.9H111.8v43.3H172c-2.6,14-10.5,25.8-22.3,33.8v28.1h36.1
			C207,177.1,219.2,148.4,219.2,114.4z"/>
		<path class="st2" d="M111.8,223.6c30.2,0,55.5-10,74-27.1l-36.1-28.1c-10,6.7-22.8,10.7-37.9,10.7c-29.1,0-53.8-19.7-62.6-46.1
			H11.9v29C30.3,198.6,68.1,223.6,111.8,223.6z"/>
		<path class="st3" d="M49.3,133.1c-2.2-6.7-3.5-13.9-3.5-21.2c0-7.4,1.3-14.5,3.5-21.2v-29H11.9C4.3,76.7,0,93.8,0,111.8
			s4.3,35.1,11.9,50.2L49.3,133.1z"/>
		<path class="st4" d="M111.8,44.5c16.4,0,31.2,5.6,42.7,16.7l32.1-32.1C167.3,11.1,142,0,111.8,0C68.1,0,30.3,25.1,11.9,61.6
			l37.4,29C58,64.1,82.7,44.5,111.8,44.5z"/>
	</g>
</g>
</svg>
